<?xml version="1.0" encoding="UTF-8" standalone="no"?>
<svg
   width="640"
   height="640"
   viewBox="0 0 640 640.00003"
   version="1.1"
   xmlns="http://www.w3.org/2000/svg"
   xmlns:svg="http://www.w3.org/2000/svg"
   xmlns:rdf="http://www.w3.org/1999/02/22-rdf-syntax-ns#"
   xmlns:cc="http://creativecommons.org/ns#"
   xmlns:dc="http://purl.org/dc/elements/1.1/">
  <g>
    <rect
       style="fill:#ffcc00;stroke-width:4;stroke-linecap:round;paint-order:stroke fill markers"
       width="640"
       height="640"
       x="-2e-06"
       y="8.7917024e-06" />
  </g>
  <g
     transform="translate(1.5791098,15.416743)">
    <g
       style="fill:#4b00a2;fill-opacity:1">
      <text
         xml:space="preserve"
         style="font-style:normal;font-variant:normal;font-weight:normal;font-stretch:normal;font-size:331.833px;font-family:'DejaVu Sans';-inkscape-font-specification:'DejaVu Sans';fill:#4b00a2;stroke-width:4;stroke-linecap:round;paint-order:stroke fill markers;fill-opacity:1"
         x="377.88675"
         y="371.38138"
         transform="scale(0.78868402,1.2679349)"><tspan
           x="377.88675"
           y="371.38138"
           style="font-style:normal;font-variant:normal;font-weight:normal;font-stretch:normal;font-size:331.833px;font-family:Impact;-inkscape-font-specification:Impact;stroke-width:4;fill:#4b00a2;fill-opacity:1">C</tspan></text>
      <path
         style="font-style:normal;font-variant:normal;font-weight:normal;font-stretch:normal;font-size:186.475px;font-family:'DejaVu Sans';-inkscape-font-specification:'DejaVu Sans';fill:#4b00a2;stroke-width:4;stroke-linecap:round;paint-order:stroke fill markers;fill-opacity:1"
         d="m 233.34834,304.58337 c -14.56789,0 -26.40966,2.67029 -35.52523,8.00866 -9.11559,5.33839 -15.20555,11.50938 -18.27246,18.516 -2.98174,6.92322 -4.47355,16.80858 -4.47355,29.65406 v 11.13537 h 48.43327 V 354.506 c 0,-9.25877 0.42544,-14.97316 1.27737,-17.14186 0.85192,-2.25214 3.02282,-3.379 6.51571,-3.379 3.06691,0 5.24055,1.33515 6.51844,4.00433 1.36307,2.58578 2.04489,8.2174 2.04489,16.89226 0,6.92322 -0.59728,11.51075 -1.78997,13.76288 -1.19269,2.25214 -10.26631,6.63137 -27.21956,13.13754 -15.84577,6.00567 -25.77027,11.26078 -29.77431,15.76503 -4.00404,4.50427 -6.00584,12.96903 -6.00584,25.39744 v 13.63941 c 0,16.76586 3.74725,27.64989 11.24416,32.65463 7.58213,4.92131 15.88937,7.38331 24.91974,7.38331 6.90059,0 12.82148,-1.46064 17.76262,-4.38007 5.02635,-3.00283 9.11725,-7.46487 12.26936,-13.38712 v 14.76395 h 50.2205 V 390.29 c 0,-27.44261 -0.89454,-45.54441 -2.68357,-54.3027 -1.78905,-8.84168 -7.11539,-16.26504 -15.9754,-22.27073 -8.85999,-6.08908 -22.02177,-9.1332 -39.48617,-9.1332 z m 6.51844,90.08402 v 34.15759 c 0,8.34121 -0.51273,13.51354 -1.53504,15.51544 -0.93713,1.91847 -3.02346,2.87711 -6.26078,2.87711 -3.4077,0 -5.70676,-1.24969 -6.89947,-3.75205 -1.10747,-2.50238 -1.66112,-8.05121 -1.66112,-16.64267 0,-7.5071 0.63817,-13.26154 1.91606,-17.26531 1.36306,-4.0038 6.17668,-8.96785 14.44035,-14.89011 z" />
      <text
         xml:space="preserve"
         style="font-style:normal;font-variant:normal;font-weight:normal;font-stretch:normal;font-size:258.963px;font-family:'DejaVu Sans';-inkscape-font-specification:'DejaVu Sans';fill:#4b00a2;stroke-width:4;stroke-linecap:round;paint-order:stroke fill markers;fill-opacity:1"
         x="438.06641"
         y="478.64545"
         transform="scale(1.0106142,0.98949728)"><tspan
           x="438.06641"
           y="478.64545"
           style="font-style:normal;font-variant:normal;font-weight:normal;font-stretch:normal;font-size:258.963px;font-family:Impact;-inkscape-font-specification:Impact;stroke-width:4;fill:#4b00a2;fill-opacity:1">c</tspan></text>
      <text
         xml:space="preserve"
         style="font-style:normal;font-variant:normal;font-weight:normal;font-stretch:normal;font-size:338.73px;font-family:'DejaVu Sans';-inkscape-font-specification:'DejaVu Sans';fill:#4b00a2;stroke-width:4;stroke-linecap:round;paint-order:stroke fill markers;fill-opacity:1"
         x="93.632469"
         y="369.21649"
         transform="scale(0.77262527,1.2942885)"><tspan
           x="93.632469"
           y="369.21649"
           style="font-style:normal;font-variant:normal;font-weight:normal;font-stretch:normal;font-size:338.73px;font-family:Impact;-inkscape-font-specification:Impact;stroke-width:4;fill:#4b00a2;fill-opacity:1">Y</tspan></text>
    </g>
  </g>
</svg>
